<svg width="138" height="28" viewBox="0 0 138 28" fill="none" xmlns="http://www.w3.org/2000/svg">
<g clip-path="url(#clip0_1_59)">
<path d="M18.7143 0C16.6662 0 15 1.66623 15 3.71429C15 5.76235 16.6662 7.42859 18.7143 7.42859C20.7624 7.42859 22.4286 5.76235 22.4286 3.71429C22.4286 1.66623 20.7624 0 18.7143 0Z" fill="#3A6AF5"/>
<path d="M37.2856 0C35.2375 0 33.5713 1.66623 33.5713 3.71429C33.5713 5.76235 35.2375 7.42859 37.2856 7.42859C39.3336 7.42859 40.9999 5.76235 40.9999 3.71429C40.9999 1.66623 39.3336 0 37.2856 0Z" fill="#F3F3F3"/>
<path d="M27.9999 0C25.9519 0 24.2856 1.66623 24.2856 3.71429C24.2856 5.76235 25.9519 7.42859 27.9999 7.42859C30.048 7.42859 31.7142 5.76235 31.7142 3.71429C31.7142 1.66623 30.048 0 27.9999 0Z" fill="#3A6AF5"/>
<path d="M37.2856 18.5713C35.2375 18.5713 33.5713 20.2375 33.5713 22.2856C33.5713 24.3336 35.2375 25.9999 37.2856 25.9999C39.3336 25.9999 40.9999 24.3336 40.9999 22.2856C40.9999 20.2375 39.3336 18.5713 37.2856 18.5713Z" fill="#3A6AF5"/>
<path d="M37.2856 9.28564C35.2375 9.28564 33.5713 10.9519 33.5713 12.9999C33.5713 15.048 35.2375 16.7142 37.2856 16.7142C39.3336 16.7142 40.9999 15.048 40.9999 12.9999C40.9999 10.9519 39.3336 9.28564 37.2856 9.28564Z" fill="#F3F3F3"/>
<path d="M27.9999 9.28564C25.9519 9.28564 24.2856 10.9519 24.2856 12.9999C24.2856 15.048 25.9519 16.7142 27.9999 16.7142C30.048 16.7142 31.7142 15.048 31.7142 12.9999C31.7142 10.9519 30.048 9.28564 27.9999 9.28564Z" fill="#3A6AF5"/>
</g>
<path d="M53.54 8.84V12.85H58.76V15.21H53.54V21H50.52V6.49H59.76V8.84H53.54ZM64.2886 10.69V21H61.5286V10.69H64.2886ZM64.6186 7.76C64.6186 7.99333 64.5719 8.21 64.4786 8.41C64.3853 8.61 64.2586 8.78667 64.0986 8.94C63.9453 9.09333 63.7619 9.21333 63.5486 9.3C63.3419 9.38667 63.1186 9.43 62.8786 9.43C62.6519 9.43 62.4353 9.38667 62.2286 9.3C62.0286 9.21333 61.8519 9.09333 61.6986 8.94C61.5453 8.78667 61.4219 8.61 61.3286 8.41C61.2419 8.21 61.1986 7.99333 61.1986 7.76C61.1986 7.52667 61.2419 7.31 61.3286 7.11C61.4219 6.90333 61.5453 6.72333 61.6986 6.57C61.8519 6.41667 62.0286 6.29667 62.2286 6.21C62.4353 6.12333 62.6519 6.08 62.8786 6.08C63.1186 6.08 63.3419 6.12333 63.5486 6.21C63.7619 6.29667 63.9453 6.41667 64.0986 6.57C64.2586 6.72333 64.3853 6.90333 64.4786 7.11C64.5719 7.31 64.6186 7.52667 64.6186 7.76ZM69.2039 11.89C69.4106 11.69 69.6239 11.5067 69.8439 11.34C70.0706 11.1733 70.3072 11.03 70.5539 10.91C70.8072 10.79 71.0772 10.6967 71.3639 10.63C71.6572 10.5633 71.9739 10.53 72.3139 10.53C72.8739 10.53 73.3706 10.6267 73.8039 10.82C74.2372 11.0133 74.6006 11.2833 74.8939 11.63C75.1939 11.9767 75.4172 12.39 75.5639 12.87C75.7172 13.35 75.7939 13.8767 75.7939 14.45V21H73.0439V14.45C73.0439 13.8767 72.9106 13.4333 72.6439 13.12C72.3772 12.8 71.9839 12.64 71.4639 12.64C71.0772 12.64 70.7139 12.7233 70.3739 12.89C70.0339 13.0567 69.7106 13.29 69.4039 13.59V21H66.6439V10.69H68.3439C68.6906 10.69 68.9206 10.85 69.0339 11.17L69.2039 11.89ZM83.3816 16.69C82.7082 16.7233 82.1482 16.7833 81.7016 16.87C81.2549 16.95 80.8982 17.0567 80.6316 17.19C80.3716 17.3233 80.1849 17.4767 80.0716 17.65C79.9649 17.8167 79.9116 18 79.9116 18.2C79.9116 18.6 80.0216 18.8833 80.2416 19.05C80.4682 19.2167 80.7816 19.3 81.1816 19.3C81.6416 19.3 82.0382 19.22 82.3716 19.06C82.7116 18.8933 83.0482 18.6367 83.3816 18.29V16.69ZM77.7616 12.12C78.3682 11.5733 79.0382 11.1667 79.7716 10.9C80.5049 10.6267 81.2982 10.49 82.1516 10.49C82.7649 10.49 83.3116 10.59 83.7916 10.79C84.2782 10.99 84.6882 11.27 85.0216 11.63C85.3616 11.9833 85.6216 12.4067 85.8016 12.9C85.9816 13.3933 86.0716 13.9333 86.0716 14.52V21H84.8116C84.5516 21 84.3516 20.9633 84.2116 20.89C84.0782 20.8167 83.9682 20.6633 83.8816 20.43L83.6616 19.77C83.4016 19.9967 83.1482 20.1967 82.9016 20.37C82.6616 20.5433 82.4116 20.69 82.1516 20.81C81.8916 20.9233 81.6116 21.01 81.3116 21.07C81.0182 21.13 80.6882 21.16 80.3216 21.16C79.8682 21.16 79.4549 21.1 79.0816 20.98C78.7082 20.86 78.3849 20.6833 78.1116 20.45C77.8449 20.21 77.6382 19.9133 77.4916 19.56C77.3449 19.2067 77.2716 18.8 77.2716 18.34C77.2716 17.96 77.3682 17.58 77.5616 17.2C77.7549 16.82 78.0849 16.4767 78.5516 16.17C79.0249 15.8567 79.6516 15.6 80.4316 15.4C81.2182 15.1933 82.2016 15.0767 83.3816 15.05V14.52C83.3816 13.8733 83.2449 13.4 82.9716 13.1C82.6982 12.7933 82.3049 12.64 81.7916 12.64C81.4116 12.64 81.0949 12.6867 80.8416 12.78C80.5882 12.8667 80.3649 12.9633 80.1716 13.07C79.9849 13.17 79.8082 13.2667 79.6416 13.36C79.4749 13.4467 79.2816 13.49 79.0616 13.49C78.8682 13.49 78.7049 13.4433 78.5716 13.35C78.4449 13.25 78.3382 13.1333 78.2516 13L77.7616 12.12ZM90.7859 11.89C90.9926 11.69 91.2059 11.5067 91.4259 11.34C91.6526 11.1733 91.8893 11.03 92.1359 10.91C92.3893 10.79 92.6593 10.6967 92.9459 10.63C93.2393 10.5633 93.5559 10.53 93.8959 10.53C94.4559 10.53 94.9526 10.6267 95.3859 10.82C95.8193 11.0133 96.1826 11.2833 96.4759 11.63C96.7759 11.9767 96.9993 12.39 97.1459 12.87C97.2993 13.35 97.3759 13.8767 97.3759 14.45V21H94.6259V14.45C94.6259 13.8767 94.4926 13.4333 94.2259 13.12C93.9593 12.8 93.5659 12.64 93.0459 12.64C92.6593 12.64 92.2959 12.7233 91.9559 12.89C91.6159 13.0567 91.2926 13.29 90.9859 13.59V21H88.2259V10.69H89.9259C90.2726 10.69 90.5026 10.85 90.6159 11.17L90.7859 11.89ZM107.054 12.99C106.974 13.0967 106.894 13.18 106.814 13.24C106.734 13.2933 106.62 13.32 106.474 13.32C106.34 13.32 106.21 13.2833 106.084 13.21C105.964 13.13 105.824 13.0467 105.664 12.96C105.504 12.8667 105.314 12.7833 105.094 12.71C104.874 12.63 104.6 12.59 104.274 12.59C103.86 12.59 103.5 12.6667 103.194 12.82C102.894 12.9667 102.644 13.18 102.444 13.46C102.244 13.74 102.094 14.08 101.994 14.48C101.9 14.88 101.854 15.33 101.854 15.83C101.854 16.8833 102.064 17.69 102.484 18.25C102.91 18.81 103.49 19.09 104.224 19.09C104.477 19.09 104.694 19.07 104.874 19.03C105.06 18.9833 105.22 18.9267 105.354 18.86C105.494 18.7933 105.614 18.72 105.714 18.64C105.814 18.56 105.907 18.4867 105.994 18.42C106.087 18.3533 106.177 18.3 106.264 18.26C106.357 18.2133 106.46 18.19 106.574 18.19C106.787 18.19 106.954 18.27 107.074 18.43L107.864 19.43C107.57 19.77 107.257 20.0533 106.924 20.28C106.59 20.5 106.244 20.6767 105.884 20.81C105.53 20.9367 105.17 21.0233 104.804 21.07C104.437 21.1233 104.074 21.15 103.714 21.15C103.08 21.15 102.48 21.0333 101.914 20.8C101.347 20.56 100.85 20.2133 100.424 19.76C99.9969 19.3067 99.6569 18.75 99.4036 18.09C99.1569 17.43 99.0336 16.6767 99.0336 15.83C99.0336 15.0767 99.1436 14.3767 99.3636 13.73C99.5836 13.0833 99.9069 12.5233 100.334 12.05C100.76 11.5767 101.287 11.2067 101.914 10.94C102.547 10.6667 103.277 10.53 104.104 10.53C104.89 10.53 105.58 10.6567 106.174 10.91C106.767 11.1633 107.3 11.53 107.774 12.01L107.054 12.99ZM115.625 14.63C115.625 14.3433 115.585 14.07 115.505 13.81C115.432 13.55 115.312 13.32 115.145 13.12C114.979 12.92 114.769 12.7633 114.515 12.65C114.262 12.53 113.959 12.47 113.605 12.47C112.945 12.47 112.429 12.6567 112.055 13.03C111.682 13.4033 111.439 13.9367 111.325 14.63H115.625ZM111.285 16.27C111.372 17.2367 111.645 17.9433 112.105 18.39C112.572 18.8367 113.179 19.06 113.925 19.06C114.305 19.06 114.632 19.0167 114.905 18.93C115.185 18.8367 115.429 18.7367 115.635 18.63C115.849 18.5167 116.039 18.4167 116.205 18.33C116.379 18.2367 116.549 18.19 116.715 18.19C116.929 18.19 117.095 18.27 117.215 18.43L118.015 19.43C117.722 19.77 117.399 20.0533 117.045 20.28C116.692 20.5 116.325 20.6767 115.945 20.81C115.565 20.9367 115.182 21.0233 114.795 21.07C114.409 21.1233 114.035 21.15 113.675 21.15C112.955 21.15 112.282 21.0333 111.655 20.8C111.035 20.56 110.492 20.21 110.025 19.75C109.565 19.2833 109.202 18.7067 108.935 18.02C108.669 17.3333 108.535 16.5367 108.535 15.63C108.535 14.93 108.649 14.27 108.875 13.65C109.109 13.03 109.442 12.49 109.875 12.03C110.309 11.57 110.835 11.2067 111.455 10.94C112.075 10.6667 112.775 10.53 113.555 10.53C114.215 10.53 114.822 10.6367 115.375 10.85C115.935 11.0567 116.415 11.36 116.815 11.76C117.222 12.16 117.535 12.6533 117.755 13.24C117.982 13.82 118.095 14.4833 118.095 15.23C118.095 15.4367 118.085 15.6067 118.065 15.74C118.045 15.8733 118.012 15.98 117.965 16.06C117.919 16.14 117.855 16.1967 117.775 16.23C117.695 16.2567 117.592 16.27 117.465 16.27H111.285Z" fill="#F3F3F3"/>
<defs>
<clipPath id="clip0_1_59">
<rect width="26" height="26" fill="white" transform="translate(15)"/>
</clipPath>
</defs>
</svg>
