<svg width="12" height="12" viewBox="0 0 12 12" fill="none" xmlns="http://www.w3.org/2000/svg">
<g clip-path="url(#clip0_148_274)">
<path d="M9.62398 3.46338V11.1976H8.79202V4.63523H6.41599V11.1976H5.58401V5.80711H3.20798V11.1977H2.376V6.97896H0V11.9008H12V3.46338H9.62398ZM1.67292 11.1976H0.703125V7.68208H1.67292V11.1976ZM4.88088 11.1976H3.91111V6.51021H4.88088V11.1976ZM8.08889 11.1976H7.11912V5.33836H8.08889V11.1976ZM11.2969 11.1976H10.3271V4.1665H11.2969V11.1976Z" fill="white"/>
<path d="M10.3575 0.0991211L9.98739 0.696965L10.7404 1.16307L0.0209656 5.0498L0.260661 5.71083L10.9612 1.83094L10.6383 2.65329L11.2928 2.91019L11.9978 1.11448L10.3575 0.0991211Z" fill="white"/>
</g>
<defs>
<clipPath id="clip0_148_274">
<rect width="12" height="12" fill="white"/>
</clipPath>
</defs>
</svg>
