<svg width="18" height="19" viewBox="0 0 18 19" fill="none" xmlns="http://www.w3.org/2000/svg">
<path d="M2.26791 12.8232L4.79041 10.8942C4.64617 10.4561 4.56818 9.98745 4.56818 9.49996C4.56818 9.01247 4.64617 8.54381 4.79041 8.10573L2.26791 6.17676C1.77593 7.177 1.5 8.30469 1.5 9.49996C1.5 10.6952 1.77593 11.8229 2.26791 12.8232Z" fill="#FBBC05"/>
<path d="M4.79056 8.10577C5.37256 6.33805 7.0331 5.06818 9.00015 5.06818C10.057 5.06818 11.0115 5.44318 11.7615 6.05682L13.9433 3.875C12.6138 2.71591 10.9092 2 9.00015 2C6.03633 2 3.488 3.69657 2.26807 6.1768L4.79056 8.10577Z" fill="#EA4335"/>
<path d="M9.00019 17.0002C6.03555 17.0002 3.48662 15.3027 2.26709 12.8213L4.78856 10.8882C5.3687 12.6591 7.03083 13.932 9.00019 13.932C9.96386 13.932 10.8177 13.705 11.4939 13.2783L13.8886 15.1323C12.5777 16.3512 10.8295 17.0002 9.00019 17.0002Z" fill="#34A853"/>
<path d="M9 8.13623H15.9886C16.0909 8.57941 16.1591 9.05669 16.1591 9.49987C16.1591 11.9443 15.2648 13.8523 13.8885 15.132L11.4937 13.278C12.2767 12.7838 12.8215 12.0218 13.0227 11.034H9V8.13623Z" fill="#4285F4"/>
</svg>
