<svg width="18" height="18" viewBox="0 0 18 18" fill="none" xmlns="http://www.w3.org/2000/svg">
<g clip-path="url(#clip0_1_1027)">
<path d="M15 4.5H12V3C12 2.175 11.325 1.5 10.5 1.5H7.5C6.675 1.5 6 2.175 6 3V4.5H3C2.175 4.5 1.5 5.175 1.5 6V15C1.5 15.825 2.175 16.5 3 16.5H15C15.825 16.5 16.5 15.825 16.5 15V6C16.5 5.175 15.825 4.5 15 4.5ZM7.5 3H10.5V4.5H7.5V3ZM12 11.25H9.75V13.5H8.25V11.25H6V9.75H8.25V7.5H9.75V9.75H12V11.25Z" fill="#3A6AF5"/>
</g>
<defs>
<clipPath id="clip0_1_1027">
<path d="M0 9C0 4.02944 4.02944 0 9 0C13.9706 0 18 4.02944 18 9C18 13.9706 13.9706 18 9 18C4.02944 18 0 13.9706 0 9Z" fill="white"/>
</clipPath>
</defs>
</svg>
