<svg width="18" height="18" viewBox="0 0 18 18" fill="none" xmlns="http://www.w3.org/2000/svg">
<g clip-path="url(#clip0_1_1016)">
<path d="M16.2 13.6501L9.75 8.81262V8.13012C10.9875 7.76262 11.85 6.50262 11.5725 5.09262C11.3775 4.11012 10.5975 3.29262 9.615 3.06762C7.905 2.67762 6.375 3.97512 6.375 5.62512H7.875C7.875 5.00262 8.3775 4.50012 9 4.50012C9.6225 4.50012 10.125 5.00262 10.125 5.62512C10.125 6.25512 9.6075 6.76512 8.9775 6.75012C8.5725 6.74262 8.25 7.08762 8.25 7.49262V8.81262L1.8 13.6501C1.2225 14.0851 1.53 15.0001 2.25 15.0001H9H15.75C16.47 15.0001 16.7775 14.0851 16.2 13.6501ZM4.5 13.5001L9 10.1251L13.5 13.5001H4.5Z" fill="#3A6AF5"/>
</g>
<defs>
<clipPath id="clip0_1_1016">
<path d="M0 9C0 4.02944 4.02944 0 9 0C13.9706 0 18 4.02944 18 9C18 13.9706 13.9706 18 9 18C4.02944 18 0 13.9706 0 9Z" fill="white"/>
</clipPath>
</defs>
</svg>
