<svg width="18" height="18" viewBox="0 0 18 18" fill="none" xmlns="http://www.w3.org/2000/svg">
<g clip-path="url(#clip0_1_1035)">
<path d="M6.4125 8.99998C5.61 8.46748 4.725 8.04748 3.765 7.79248C4.725 8.04748 5.61 8.46748 6.4125 8.99998ZM14.235 7.79248C13.2675 8.04748 12.3675 8.47498 11.5575 9.02248C12.3675 8.47498 13.2675 8.04748 14.235 7.79248Z" fill="#242424"/>
<path d="M11.6175 7.2225C11.4825 5.13 10.635 3.09 9.045 1.5C7.44 3.105 6.555 5.145 6.3825 7.2225C7.3425 7.7325 8.2275 8.3925 9 9.195C9.7725 8.4 10.6575 7.74 11.6175 7.2225ZM6.7425 9.21C6.6375 9.135 6.5175 9.0675 6.405 8.9925C6.5175 9.075 6.6375 9.135 6.7425 9.21ZM11.5575 9.0225C11.46 9.09 11.355 9.1425 11.2575 9.2175C11.355 9.1425 11.46 9.09 11.5575 9.0225ZM9 11.5875C7.3875 9.1275 4.635 7.5 1.5 7.5C1.5 11.49 4.02 14.865 7.5225 16.1175C7.995 16.29 8.49 16.4175 9 16.5C9.51 16.41 9.9975 16.2825 10.4775 16.1175C13.98 14.865 16.5 11.49 16.5 7.5C13.365 7.5 10.6125 9.1275 9 11.5875Z" fill="#3A6AF5"/>
</g>
<defs>
<clipPath id="clip0_1_1035">
<path d="M0 9C0 4.02944 4.02944 0 9 0C13.9706 0 18 4.02944 18 9C18 13.9706 13.9706 18 9 18C4.02944 18 0 13.9706 0 9Z" fill="white"/>
</clipPath>
</defs>
</svg>
