<svg width="18" height="18" viewBox="0 0 18 18" fill="none" xmlns="http://www.w3.org/2000/svg">
<g clip-path="url(#clip0_1_1046)">
<path d="M14.25 6.975V3H12V4.95L8.99997 2.25L1.49997 9H3.74997V15H7.49997V10.5H10.5V15H14.25V9H16.5L14.25 6.975ZM7.49997 7.5C7.49997 6.675 8.17497 6 8.99997 6C9.82497 6 10.5 6.675 10.5 7.5H7.49997Z" fill="#3A6AF5"/>
</g>
<defs>
<clipPath id="clip0_1_1046">
<path d="M0 9C0 4.02944 4.02944 0 9 0C13.9706 0 18 4.02944 18 9C18 13.9706 13.9706 18 9 18C4.02944 18 0 13.9706 0 9Z" fill="white"/>
</clipPath>
</defs>
</svg>
