<svg width="18" height="18" viewBox="0 0 18 18" fill="none" xmlns="http://www.w3.org/2000/svg">
<g clip-path="url(#clip0_1_1053)">
<path d="M10.6275 10.2825L11.6775 8.4675C11.745 8.355 11.715 8.2125 11.6175 8.13L10.5075 7.26C10.53 7.095 10.545 6.9225 10.545 6.75C10.545 6.5775 10.53 6.405 10.5075 6.2325L11.6175 5.3625C11.715 5.28 11.745 5.1375 11.6775 5.025L10.6275 3.21C10.56 3.0975 10.425 3.0525 10.305 3.0975L9 3.6225C8.73 3.4125 8.4375 3.24 8.115 3.105L7.92 1.7175C7.8975 1.5975 7.785 1.5 7.6575 1.5H5.5575C5.43 1.5 5.3175 1.5975 5.295 1.725L5.1 3.1125C4.785 3.2475 4.485 3.42 4.215 3.63L2.91 3.105C2.79 3.06 2.655 3.105 2.5875 3.2175L1.5375 5.0325C1.47 5.145 1.5 5.2875 1.5975 5.37L2.7075 6.24C2.685 6.405 2.67 6.5775 2.67 6.75C2.67 6.9225 2.685 7.095 2.7075 7.2675L1.5975 8.1375C1.5 8.22 1.47 8.3625 1.5375 8.475L2.5875 10.29C2.655 10.4025 2.79 10.4475 2.91 10.4025L4.215 9.8775C4.485 10.0875 4.7775 10.26 5.1 10.395L5.295 11.7825C5.3175 11.9025 5.43 12 5.5575 12H7.6575C7.785 12 7.8975 11.9025 7.92 11.775L8.115 10.3875C8.43 10.2525 8.73 10.08 9 9.87L10.305 10.395C10.425 10.44 10.56 10.395 10.6275 10.2825ZM6.6075 8.25C5.7825 8.25 5.1075 7.575 5.1075 6.75C5.1075 5.925 5.7825 5.25 6.6075 5.25C7.4325 5.25 8.1075 5.925 8.1075 6.75C8.1075 7.575 7.4325 8.25 6.6075 8.25Z" fill="#3A6AF5"/>
<path d="M16.44 14.0025L15.72 13.4475C15.735 13.3425 15.75 13.23 15.75 13.1175C15.75 13.005 15.7425 12.8925 15.72 12.7875L16.4325 12.2325C16.4925 12.18 16.515 12.09 16.47 12.015L15.795 10.8525C15.7575 10.7775 15.6675 10.755 15.585 10.7775L14.7525 11.115C14.58 10.98 14.3925 10.8675 14.1825 10.785L14.055 9.9C14.0475 9.81 13.9725 9.75 13.8975 9.75H12.555C12.4725 9.75 12.3975 9.81 12.39 9.8925L12.2625 10.7775C12.06 10.8675 11.865 10.9725 11.6925 11.1075L10.86 10.77C10.785 10.74 10.695 10.77 10.65 10.845L9.975 12.0075C9.9375 12.0825 9.945 12.1725 10.0125 12.225L10.725 12.78C10.71 12.885 10.7025 12.9975 10.7025 13.11C10.7025 13.2225 10.71 13.335 10.725 13.44L10.0125 13.995C9.9525 14.0475 9.93 14.1375 9.975 14.2125L10.65 15.375C10.6875 15.45 10.7775 15.4725 10.86 15.45L11.6925 15.1125C11.865 15.2475 12.0525 15.36 12.2625 15.4425L12.39 16.3275C12.405 16.41 12.4725 16.47 12.555 16.47H13.8975C13.98 16.47 14.055 16.41 14.0625 16.3275L14.19 15.4425C14.3925 15.3525 14.5875 15.2475 14.7525 15.1125L15.5925 15.45C15.6675 15.48 15.7575 15.45 15.8025 15.375L16.4775 14.2125C16.5225 14.145 16.5 14.055 16.44 14.0025ZM13.2225 14.1225C12.6675 14.1225 12.21 13.6725 12.21 13.11C12.21 12.5475 12.66 12.0975 13.2225 12.0975C13.785 12.0975 14.235 12.5475 14.235 13.11C14.235 13.6725 13.7775 14.1225 13.2225 14.1225Z" fill="#3A6AF5"/>
</g>
<defs>
<clipPath id="clip0_1_1053">
<path d="M0 9C0 4.02944 4.02944 0 9 0C13.9706 0 18 4.02944 18 9C18 13.9706 13.9706 18 9 18C4.02944 18 0 13.9706 0 9Z" fill="white"/>
</clipPath>
</defs>
</svg>
