<svg width="18" height="18" viewBox="0 0 18 18" fill="none" xmlns="http://www.w3.org/2000/svg">
<g clip-path="url(#clip0_1_1011)">
<path d="M15.7875 13.17L2.31 13.875L2.25 12.75L15.735 12.045L15.7875 13.17ZM15.75 14.61H2.25V15.735H15.75V14.61ZM16.5 3.75V9C16.5 9.825 15.825 10.5 15 10.5H3C2.175 10.5 1.5 9.825 1.5 9V3.75C1.5 2.925 2.175 2.25 3 2.25H15C15.825 2.25 16.5 2.925 16.5 3.75ZM15 4.5C13.74 4.5 12.72 5.235 12.5925 6.1725C12.1125 5.625 10.545 4.125 7.6875 4.125C4.185 4.125 2.625 6.375 2.625 6.375C2.625 6.375 4.185 8.625 7.6875 8.625C10.545 8.625 12.1125 7.125 12.5925 6.5775C12.72 7.515 13.74 8.25 15 8.25V4.5Z" fill="#3A6AF5"/>
</g>
<defs>
<clipPath id="clip0_1_1011">
<path d="M0 9C0 4.02944 4.02944 0 9 0V0C13.9706 0 18 4.02944 18 9V9C18 13.9706 13.9706 18 9 18V18C4.02944 18 0 13.9706 0 9V9Z" fill="white"/>
</clipPath>
</defs>
</svg>
