<svg width="18" height="18" viewBox="0 0 18 18" fill="none" xmlns="http://www.w3.org/2000/svg">
<g clip-path="url(#clip0_1_1041)">
<path d="M9 3H3.75C2.505 3 1.5 4.005 1.5 5.25V11.25C1.5 12.495 2.505 13.5 3.75 13.5L3 14.25V15H3.75L5.25 13.4775L6.75 13.5V9.75H3V4.485L9.75 4.5V6H11.25V5.25C11.25 4.005 10.245 3 9 3ZM3.75 10.5C4.1625 10.5 4.5 10.8375 4.5 11.25C4.5 11.6625 4.1625 12 3.75 12C3.3375 12 3 11.6625 3 11.25C3 10.8375 3.3375 10.5 3.75 10.5ZM15.4275 7.245C15.3225 6.945 15.0375 6.75 14.7 6.75H9.3075C8.9625 6.75 8.685 6.945 8.5725 7.245L7.5 10.3275L7.5075 14.46C7.5075 14.745 7.74 15 8.025 15H8.49C8.775 15 9 14.715 9 14.43V13.5H15V14.43C15 14.715 15.2325 15 15.5175 15H15.975C16.26 15 16.4925 14.745 16.4925 14.46L16.5 13.4325V10.3275L15.4275 7.245ZM9.3075 7.5H14.7L15.4725 9.75H8.535L9.3075 7.5ZM9 12C8.5875 12 8.25 11.6625 8.25 11.25C8.25 10.8375 8.5875 10.5 9 10.5C9.4125 10.5 9.75 10.8375 9.75 11.25C9.75 11.6625 9.4125 12 9 12ZM15 12C14.5875 12 14.25 11.6625 14.25 11.25C14.25 10.8375 14.5875 10.5 15 10.5C15.4125 10.5 15.75 10.8375 15.75 11.25C15.75 11.6625 15.4125 12 15 12Z" fill="#3A6AF5"/>
</g>
<defs>
<clipPath id="clip0_1_1041">
<path d="M0 9C0 4.02944 4.02944 0 9 0C13.9706 0 18 4.02944 18 9C18 13.9706 13.9706 18 9 18C4.02944 18 0 13.9706 0 9Z" fill="white"/>
</clipPath>
</defs>
</svg>
